<svg xmlns="http://www.w3.org/2000/svg" viewBox="0 0 100 100" role="img" aria-label="Cabling accessory">
  <rect x="16" y="22" width="68" height="12" rx="6" fill="#c6a15a" stroke="#2f2a26" stroke-width="2"/>
  <path d="M18 60c8-10 20-14 32-10 10 4 20 10 32 6" fill="none" stroke="#2f2a26" stroke-width="4" stroke-linecap="round"/>
  <path d="M20 72c8-8 18-10 30-6 12 4 20 2 30-2" fill="none" stroke="#2f2a26" stroke-width="4" stroke-linecap="round"/>
  <rect x="10" y="54" width="10" height="16" rx="3" fill="#2f6b6b" stroke="#2f2a26" stroke-width="2"/>
  <rect x="80" y="50" width="10" height="16" rx="3" fill="#2f6b6b" stroke="#2f2a26" stroke-width="2"/>
  <path d="M20 26h60" stroke="#fff" stroke-opacity="0.5" stroke-width="3" stroke-linecap="round"/>
  <defs>
    <pattern id="boardgame-hatch" width="6" height="6" patternUnits="userSpaceOnUse" patternTransform="rotate(18)">
      <line x1="0" y1="0" x2="0" y2="6" stroke="#2f2a26" stroke-opacity="0.12" stroke-width="1"/>
    </pattern>
  </defs>
  <rect x="0" y="0" width="100%" height="100%" fill="url(#boardgame-hatch)" opacity="0.18"/>
  <g id="boardgame-shade">
    <path d="M8 14h84l-8 10H16z" fill="#ffffff" opacity="0.18"/>
    <path d="M12 84h76l-8 8H20z" fill="#2f2a26" opacity="0.12"/>
  </g>
</svg>
