<svg xmlns="http://www.w3.org/2000/svg" viewBox="0 0 100 100" role="img" aria-label="Cable">
  <path d="M18 62c0-10 10-18 22-18s22 8 22 18-10 18-22 18" fill="none" stroke="#2f2a26" stroke-width="6" stroke-linecap="round"/>
  <path d="M62 62c0-8 6-14 14-14s14 6 14 14-6 14-14 14" fill="none" stroke="#2f2a26" stroke-width="6" stroke-linecap="round"/>
  <rect x="12" y="54" width="8" height="16" rx="3" fill="#c6a15a" stroke="#2f2a26" stroke-width="3"/>
  <rect x="84" y="56" width="8" height="12" rx="3" fill="#c6a15a" stroke="#2f2a26" stroke-width="3"/>
  <defs>
    <pattern id="boardgame-hatch" width="6" height="6" patternUnits="userSpaceOnUse" patternTransform="rotate(18)">
      <line x1="0" y1="0" x2="0" y2="6" stroke="#2f2a26" stroke-opacity="0.12" stroke-width="1"/>
    </pattern>
  </defs>
  <rect x="0" y="0" width="100%" height="100%" fill="url(#boardgame-hatch)" opacity="0.18"/>
  <g id="boardgame-shade">
    <path d="M8 14h84l-8 10H16z" fill="#ffffff" opacity="0.18"/>
    <path d="M12 84h76l-8 8H20z" fill="#2f2a26" opacity="0.12"/>
  </g>
</svg>
